# xmcd
#
# Track frame offsets:
#	151
#	16164
#	38514
#	52072
#	74011
#	89347
#	109746
#	125305
#
# Disc length: 2045 seconds
#
# Revision: 0
# Processed by: cddbd v1.5.1PL0 Copyright (c) Steve Scherf et al.
# Submitted via: dBpowerAMP V4.0
#
DISCID=6507fb08
DTITLE=Dean Stokes - My Country got the Blues
DYEAR=2002
DGENRE=Christian Country
TTITLE0=Please Come Back Soon
TTITLE1=Stormy Weather
TTITLE2=Angel on Your Side
TTITLE3=I Need My Freedom (Thats Why I Play for the Dead)
TTITLE4=Shined My Shoes (Went Lookin' for You)
TTITLE5=Sister I Never Had
TTITLE6=Rain on You
TTITLE7=End of My Road
EXTD=
EXTT0=
EXTT1=
EXTT2=
EXTT3=
EXTT4=
EXTT5=
EXTT6=
EXTT7=
PLAYORDER=
